<svg id="eye-line" width="18" height="13" viewBox="0 0 18 13" fill="none" xmlns="http://www.w3.org/2000/svg">
	<path d="M9 10.5C4.6 10.5 1 6 1 6C1 6 4.6 1.5 9 1.5C13.4 1.5 17 6 17 6C17 6 13.4667 10.5 9 10.5ZM9 8.89286C10.6667 8.89286 12 7.60714 12 6C12 4.39286 10.6667 3.10714 9 3.10714C7.33333 3.10714 6 4.39286 6 6C6 7.60714 7.33333 8.89286 9 8.89286Z" stroke="#4B6FFC" stroke-miterlimit="10"/>
		<g filter="url(#filter0_d)">
			<line x1="14.3536" y1="0.353553" x2="3.35355" y2="11.3536" stroke="#4B6FFC"/>
		</g>
	<defs>
		<filter id="filter0_d" x="3" y="0" width="11.7071" height="12.7071" filterUnits="userSpaceOnUse" color-interpolation-filters="sRGB">
			<feFlood flood-opacity="0" result="BackgroundImageFix"/>
			<feColorMatrix in="SourceAlpha" type="matrix" values="0 0 0 0 0 0 0 0 0 0 0 0 0 0 0 0 0 0 127 0" result="hardAlpha"/>
			<feOffset dy="1"/>
			<feColorMatrix type="matrix" values="0 0 0 0 1 0 0 0 0 1 0 0 0 0 1 0 0 0 1 0"/>
			<feBlend mode="normal" in2="BackgroundImageFix" result="effect1_dropShadow"/>
			<feBlend mode="normal" in="SourceGraphic" in2="effect1_dropShadow" result="shape"/>
		</filter>
	</defs>
</svg>